<?xml version="1.0" standalone="no"?>
<!DOCTYPE svg PUBLIC "-//W3C//DTD SVG 20010904//EN"
 "http://www.w3.org/TR/2001/REC-SVG-20010904/DTD/svg10.dtd">
<svg version="1.0" xmlns="http://www.w3.org/2000/svg"
 width="512.000000pt" height="512.000000pt" viewBox="0 0 512.000000 512.000000"
 preserveAspectRatio="xMidYMid meet">
<metadata>
Created by potrace 1.11, written by Peter Selinger 2001-2013
</metadata>
<g transform="translate(0.000000,512.000000) scale(0.100000,-0.100000)"
fill="#000000" stroke="none">
<path d="M4242 3731 c-33 -36 -44 -50 -173 -231 -57 -80 -131 -182 -164 -227
-133 -181 -182 -248 -220 -304 -22 -31 -90 -126 -151 -211 -60 -84 -119 -166
-130 -183 -18 -29 -19 -54 -22 -530 -2 -275 0 -515 3 -534 14 -73 100 -107
156 -62 l24 19 5 519 5 518 40 55 c98 134 135 186 143 195 8 9 42 57 86 120
25 35 158 218 200 275 22 30 75 102 116 160 42 58 110 153 153 212 93 128 99
144 82 185 -26 61 -107 74 -153 24z"/>
<path d="M1320 3735 c-237 -54 -425 -209 -490 -405 -27 -81 -37 -233 -21 -312
29 -137 135 -273 284 -360 102 -60 267 -115 389 -128 98 -11 110 -13 313 -50
158 -28 246 -70 336 -160 87 -86 103 -131 97 -273 -5 -121 -22 -161 -106 -249
-71 -75 -186 -137 -312 -169 -81 -20 -118 -24 -250 -24 -135 1 -166 4 -245 27
-270 76 -444 269 -445 491 0 89 -81 137 -135 82 -22 -21 -25 -33 -25 -92 0
-175 55 -307 180 -433 87 -88 162 -136 286 -184 146 -56 315 -75 524 -56 143
12 176 20 280 62 150 61 273 162 343 283 141 242 111 486 -83 668 -113 107
-289 190 -428 203 -61 6 -387 59 -462 75 -83 18 -211 88 -273 150 -71 71 -99
131 -105 224 -14 223 106 380 345 452 76 23 106 27 223 27 160 0 260 -22 380
-86 151 -80 234 -196 247 -343 8 -96 29 -125 91 -125 63 0 77 24 76 129 -1
108 -23 183 -78 269 -91 142 -232 233 -471 302 -65 19 -388 22 -465 5z"/>
</g>
</svg>
